<svg width="35" height="33" viewBox="0 0 35 33" fill="none" xmlns="http://www.w3.org/2000/svg">
<g clip-path="url(#clip0_2044_618)">
<path fill-rule="evenodd" clip-rule="evenodd" d="M2.48061 3.53571H5.87204L6.7903 6.93099C6.79754 6.95777 6.80538 6.98424 6.81379 7.0104L9.16681 18.4295C9.17268 18.4909 9.18196 18.5527 9.19471 18.6146L10.2161 23.5714C10.3561 24.2369 10.7287 24.8351 11.2708 25.2646C11.8128 25.694 12.4911 25.9286 13.1908 25.9286H27.9809C28.9868 25.9286 29.8023 25.137 29.8023 24.1607C29.8023 23.1844 28.9868 22.3929 27.9809 22.3929H13.6882L13.0811 19.4464H30.0485L30.0738 19.4468C30.1593 19.4482 30.4029 19.4524 30.6261 19.417C31.4399 19.2879 32.1366 18.7509 32.4611 18.0308C32.5934 17.7372 32.6585 17.367 32.6799 17.246L32.6862 17.2108L34.6084 8.10954L34.6138 8.08505C34.6776 7.74592 34.6638 7.39728 34.5739 7.06377C34.2966 6.03594 33.3281 5.30748 32.2335 5.30357H10.1164L9.3037 2.29854C9.15461 1.65655 8.78817 1.08083 8.26199 0.663946C7.71996 0.234485 7.04173 -5.53458e-05 6.34204 9.7964e-09H2.48061C1.47466 9.7964e-09 0.65918 0.791496 0.65918 1.76786C0.65918 2.74421 1.47466 3.53571 2.48061 3.53571ZM28.902 30.1724C28.902 28.677 27.653 27.4647 26.1126 27.4647C24.5718 27.4647 23.3229 28.677 23.3229 30.1724C23.3229 31.6677 24.5718 32.8798 26.1126 32.8798C27.653 32.8798 28.902 31.6677 28.902 30.1724ZM13.9695 27.4647C15.5101 27.4647 16.7591 28.677 16.7591 30.1724C16.7591 31.6675 15.5101 32.8798 13.9695 32.8798C12.4289 32.8798 11.18 31.6675 11.18 30.1724C11.18 28.677 12.4289 27.4647 13.9695 27.4647Z" fill="white"/>
</g>
<defs>
<clipPath id="clip0_2044_618">
<rect width="34" height="33" fill="white" transform="translate(0.65918)"/>
</clipPath>
</defs>
</svg>
