<svg width="121" height="121" viewBox="0 0 121 121" fill="none" xmlns="http://www.w3.org/2000/svg">
<g filter="url(#filter0_d_2031_97)">
<path d="M47.4132 11.9044C46.9614 11.1514 46.1477 10.6907 45.2696 10.6907H21.1013C19.1581 10.6907 17.9579 12.8105 18.9576 14.4768L45.9568 59.4753C46.4086 60.2283 47.2223 60.689 48.1004 60.689H72.2687C74.2119 60.689 75.4121 58.5692 74.4123 56.9029L47.4132 11.9044Z" fill="#C52229"/>
<path fill-rule="evenodd" clip-rule="evenodd" d="M45.2702 8.19067H21.1019C17.2156 8.19067 14.8151 12.4304 16.8146 15.7629L43.8137 60.7614C44.7173 62.2674 46.3448 63.1889 48.101 63.1889H72.2693C76.1556 63.1889 78.5561 58.9492 76.5566 55.6166L49.5575 10.6181C48.6539 9.11214 47.0264 8.19067 45.2702 8.19067ZM45.2702 10.6906C46.1483 10.6906 46.962 11.1513 47.4138 11.9043L74.413 56.9028C75.4127 58.5691 74.2125 60.689 72.2693 60.689H48.101C47.2229 60.689 46.4092 60.2282 45.9574 59.4752L18.9583 14.4767C17.9585 12.8105 19.1587 10.6906 21.1019 10.6906H45.2702Z" fill="#9B0F15"/>
<path d="M73.4559 11.9044C73.9077 11.1514 74.7214 10.6907 75.5996 10.6907H99.7678C101.711 10.6907 102.911 12.8105 101.911 14.4768L74.9124 59.4753C74.4606 60.2283 73.6468 60.689 72.7687 60.689H48.6005C46.6573 60.689 45.457 58.5692 46.4568 56.9029L73.4559 11.9044Z" fill="#F1333B"/>
<path fill-rule="evenodd" clip-rule="evenodd" d="M75.5999 8.19067H99.7682C103.655 8.19067 106.055 12.4304 104.056 15.7629L77.0564 60.7614C76.1528 62.2674 74.5253 63.1889 72.7691 63.1889H48.6008C44.7145 63.1889 42.314 58.9492 44.3135 55.6166L71.3126 10.6181C72.2162 9.11214 73.8437 8.19067 75.5999 8.19067ZM75.5999 10.6906C74.7218 10.6906 73.9081 11.1513 73.4563 11.9043L46.4572 56.9028C45.4574 58.5691 46.6576 60.689 48.6008 60.689H72.7691C73.6472 60.689 74.4609 60.2282 74.9127 59.4752L101.912 14.4767C102.912 12.8105 101.711 10.6906 99.7682 10.6906H75.5999Z" fill="#9B0F15"/>
<path fill-rule="evenodd" clip-rule="evenodd" d="M76.062 12.1096C76.659 12.4563 76.862 13.2213 76.5153 13.8182L65.2657 33.1926C64.919 33.7896 64.1541 33.9926 63.5571 33.6459C62.9601 33.2993 62.7571 32.5343 63.1038 31.9373L74.3534 12.5629C74.7001 11.966 75.465 11.763 76.062 12.1096Z" fill="#FE666D"/>
<path fill-rule="evenodd" clip-rule="evenodd" d="M21.0581 12.1096C20.4611 12.4563 20.2582 13.2213 20.6048 13.8182L31.8544 33.1926C32.2011 33.7896 32.966 33.9926 33.563 33.6459C34.16 33.2993 34.363 32.5343 34.0163 31.9373L22.7667 12.5629C22.4201 11.966 21.6551 11.763 21.0581 12.1096Z" fill="#DF3840"/>
<path d="M44.81 14.7922C44.81 15.6767 44.1104 16.3937 43.2475 16.3937C42.3846 16.3937 41.6851 15.6767 41.6851 14.7922C41.6851 13.9077 42.3846 13.1907 43.2475 13.1907C44.1104 13.1907 44.81 13.9077 44.81 14.7922Z" fill="#AA161D"/>
<path d="M39.3226 15.1828C39.3226 16.283 38.4525 17.1749 37.3791 17.1749C36.3057 17.1749 35.4355 16.283 35.4355 15.1828C35.4355 14.0826 36.3057 13.1907 37.3791 13.1907C38.4525 13.1907 39.3226 14.0826 39.3226 15.1828Z" fill="#AA161D"/>
<path d="M44.1854 20.8857C44.1854 21.9859 43.3153 22.8778 42.2419 22.8778C41.1685 22.8778 40.2983 21.9859 40.2983 20.8857C40.2983 19.7855 41.1685 18.8936 42.2419 18.8936C43.3153 18.8936 44.1854 19.7855 44.1854 20.8857Z" fill="#AA161D"/>
<path d="M48.6286 18.1709C48.6286 18.721 48.1935 19.1669 47.6568 19.1669C47.1201 19.1669 46.6851 18.721 46.6851 18.1709C46.6851 17.6208 47.1201 17.1748 47.6568 17.1748C48.1935 17.1748 48.6286 17.6208 48.6286 18.1709Z" fill="#AA161D"/>
<path d="M38.3512 19.8896C38.3512 20.4397 37.9162 20.8857 37.3795 20.8857C36.8428 20.8857 36.4077 20.4397 36.4077 19.8896C36.4077 19.3395 36.8428 18.8936 37.3795 18.8936C37.9162 18.8936 38.3512 19.3395 38.3512 19.8896Z" fill="#AA161D"/>
<path d="M32.9357 13.7961C32.9357 14.3462 32.5006 14.7922 31.964 14.7922C31.4273 14.7922 30.9922 14.3462 30.9922 13.7961C30.9922 13.246 31.4273 12.8 31.964 12.8C32.5006 12.8 32.9357 13.246 32.9357 13.7961Z" fill="#AA161D"/>
<path d="M47.6569 25.1237C47.6569 25.6739 47.2218 26.1198 46.6851 26.1198C46.1485 26.1198 45.7134 25.6739 45.7134 25.1237C45.7134 24.5736 46.1485 24.1277 46.6851 24.1277C47.2218 24.1277 47.6569 24.5736 47.6569 25.1237Z" fill="#AA161D"/>
<path d="M42.6569 26.1198C42.6569 26.6699 42.2218 27.1159 41.6851 27.1159C41.1485 27.1159 40.7134 26.6699 40.7134 26.1198C40.7134 25.5697 41.1485 25.1238 41.6851 25.1238C42.2218 25.1238 42.6569 25.5697 42.6569 26.1198Z" fill="#AA161D"/>
<path d="M52.3481 22.5068C52.3481 23.4021 51.64 24.1278 50.7666 24.1278C49.8931 24.1278 49.1851 23.4021 49.1851 22.5068C49.1851 21.6115 49.8931 20.8857 50.7666 20.8857C51.64 20.8857 52.3481 21.6115 52.3481 22.5068Z" fill="#AA161D"/>
<path d="M54.4098 27.1159C54.4098 27.666 53.9748 28.112 53.4381 28.112C52.9014 28.112 52.4663 27.666 52.4663 27.1159C52.4663 26.5658 52.9014 26.1199 53.4381 26.1199C53.9748 26.1199 54.4098 26.5658 54.4098 27.1159Z" fill="#AA161D"/>
<path d="M94.1833 76.9384C94.1833 95.5774 79.0734 110.687 60.4344 110.687C41.7954 110.687 26.6855 95.5774 26.6855 76.9384C26.6855 58.2993 41.7954 43.1895 60.4344 43.1895C79.0734 43.1895 94.1833 58.2993 94.1833 76.9384Z" fill="#FFBB0D"/>
<path fill-rule="evenodd" clip-rule="evenodd" d="M96.6832 76.9383C96.6832 96.9579 80.454 113.187 60.4344 113.187C40.4147 113.187 24.1855 96.9579 24.1855 76.9383C24.1855 56.9186 40.4147 40.6895 60.4344 40.6895C80.454 40.6895 96.6832 56.9186 96.6832 76.9383ZM60.4344 110.687C79.0734 110.687 94.1833 95.5773 94.1833 76.9383C94.1833 58.2993 79.0734 43.1894 60.4344 43.1894C41.7954 43.1894 26.6855 58.2993 26.6855 76.9383C26.6855 95.5773 41.7954 110.687 60.4344 110.687Z" fill="#E89B05"/>
<path fill-rule="evenodd" clip-rule="evenodd" d="M29.1856 78.1882C28.4953 78.1882 27.9357 77.6286 27.9357 76.9383C27.9357 58.9896 42.4859 44.4393 60.4346 44.4393C61.1249 44.4393 61.6846 44.999 61.6846 45.6893C61.6846 46.3796 61.1249 46.9393 60.4346 46.9393C43.8666 46.9393 30.4356 60.3703 30.4356 76.9383C30.4356 77.6286 29.876 78.1882 29.1856 78.1882Z" fill="#E8AA0A"/>
<path fill-rule="evenodd" clip-rule="evenodd" d="M91.6835 75.6885C92.3738 75.6885 92.9335 76.2481 92.9335 76.9384C92.9335 94.8871 78.3832 109.437 60.4345 109.437C59.7442 109.437 59.1846 108.878 59.1846 108.187C59.1846 107.497 59.7442 106.937 60.4345 106.937C77.0025 106.937 90.4335 93.5064 90.4335 76.9384C90.4335 76.2481 90.9932 75.6885 91.6835 75.6885Z" fill="#E8AA0A"/>
<path d="M85.4334 76.9384C85.4334 90.7451 74.2409 101.938 60.4342 101.938C46.6276 101.938 35.4351 90.7451 35.4351 76.9384C35.4351 63.1317 46.6276 51.9392 60.4342 51.9392C74.2409 51.9392 85.4334 63.1317 85.4334 76.9384Z" fill="#FFDD28"/>
<path fill-rule="evenodd" clip-rule="evenodd" d="M87.9337 76.9383C87.9337 92.1256 75.622 104.437 60.4346 104.437C45.2473 104.437 32.9355 92.1256 32.9355 76.9383C32.9355 61.751 45.2473 49.4392 60.4346 49.4392C75.622 49.4392 87.9337 61.751 87.9337 76.9383ZM60.4346 101.937C74.2413 101.937 85.4338 90.745 85.4338 76.9383C85.4338 63.1316 74.2413 51.9391 60.4346 51.9391C46.628 51.9391 35.4355 63.1316 35.4355 76.9383C35.4355 90.745 46.628 101.937 60.4346 101.937Z" fill="#E89B05"/>
<path fill-rule="evenodd" clip-rule="evenodd" d="M60.4344 98.1876C72.17 98.1876 81.6837 88.6739 81.6837 76.9383C81.6837 76.2479 82.2433 75.6883 82.9336 75.6883C83.624 75.6883 84.1836 76.2479 84.1836 76.9383C84.1836 90.0546 73.5507 100.687 60.4344 100.687C59.744 100.687 59.1844 100.128 59.1844 99.4375C59.1844 98.7472 59.744 98.1876 60.4344 98.1876Z" fill="#ECC704"/>
<path fill-rule="evenodd" clip-rule="evenodd" d="M60.4343 55.6891C48.6986 55.6891 39.185 65.2028 39.185 76.9384C39.185 77.6288 38.6254 78.1884 37.935 78.1884C37.2447 78.1884 36.6851 77.6288 36.6851 76.9384C36.6851 63.8221 47.3179 53.1892 60.4343 53.1892C61.1246 53.1892 61.6842 53.7488 61.6842 54.4392C61.6842 55.1295 61.1246 55.6891 60.4343 55.6891Z" fill="#FFEF9C"/>
<path d="M46.6851 73.6884L55.2785 71.9384L57.8566 67.5636L60.4346 63.1887L65.5907 71.9384L74.1842 73.6884L67.3094 80.6881L69.0281 89.4379L60.4346 85.063L51.8411 89.4379L53.5598 80.6881L46.6851 73.6884Z" fill="#FFEF9C"/>
<path fill-rule="evenodd" clip-rule="evenodd" d="M55.2785 71.9386L60.4346 63.1889L65.5907 71.9386L74.1841 73.6885L67.3094 80.6883L69.0281 89.438L60.4346 85.0632L51.8411 89.438L53.5598 80.6883L46.685 73.6885L55.2785 71.9386ZM50.8527 81.4997L44.9015 75.4403C44.2594 74.7865 44.0264 73.8338 44.2944 72.9575C44.5624 72.0812 45.2883 71.4217 46.1862 71.2389L53.6895 69.7109L58.2808 61.9197C58.7302 61.1571 59.5494 60.689 60.4346 60.689C61.3198 60.689 62.139 61.1571 62.5884 61.9197L67.1796 69.7109L74.683 71.2389C75.5809 71.4217 76.3068 72.0812 76.5748 72.9575C76.8427 73.8338 76.6098 74.7865 75.9677 75.4403L70.0164 81.4997L71.4811 88.9562C71.6655 89.8948 71.2981 90.8563 70.5349 91.4328C69.7716 92.0093 68.7463 92.0998 67.8939 91.6659L60.4346 87.8684L52.9753 91.6659C52.1229 92.0998 51.0976 92.0093 50.3343 91.4328C49.5711 90.8563 49.2037 89.8948 49.3881 88.9562L50.8527 81.4997Z" fill="#E89B05"/>
</g>
<defs>
<filter id="filter0_d_2031_97" x="0.436523" y="0.690918" width="122.496" height="122.496" filterUnits="userSpaceOnUse" color-interpolation-filters="sRGB">
<feFlood flood-opacity="0" result="BackgroundImageFix"/>
<feColorMatrix in="SourceAlpha" type="matrix" values="0 0 0 0 0 0 0 0 0 0 0 0 0 0 0 0 0 0 127 0" result="hardAlpha"/>
<feOffset dx="2.49992" dy="2.49992"/>
<feColorMatrix type="matrix" values="0 0 0 0 0.637788 0 0 0 0 0.545996 0 0 0 0 0.47948 0 0 0 0.2 0"/>
<feBlend mode="normal" in2="BackgroundImageFix" result="effect1_dropShadow_2031_97"/>
<feBlend mode="normal" in="SourceGraphic" in2="effect1_dropShadow_2031_97" result="shape"/>
</filter>
</defs>
</svg>
