<svg width="35" height="34" viewBox="0 0 35 34" fill="none" xmlns="http://www.w3.org/2000/svg">
<path d="M17.4996 0.908691C7.83494 0.908691 0 8.32155 0 17.4656C0 25.2301 5.65029 31.7456 13.2724 33.5351V22.5254H9.66401V17.4656H13.2724V15.2854C13.2724 9.65007 15.9681 7.03806 21.8158 7.03806C22.9245 7.03806 24.8376 7.24402 25.6202 7.44933V12.0356C25.2072 11.9945 24.4897 11.974 23.5986 11.974C20.7294 11.974 19.6206 13.0025 19.6206 15.6761V17.4656H25.3367L24.3546 22.5254H19.6206V33.9013C28.2857 32.9112 35 25.9308 35 17.4656C34.9993 8.32155 27.1644 0.908691 17.4996 0.908691Z" fill="white"/>
</svg>
