<svg width="35" height="35" viewBox="0 0 35 35" fill="none" xmlns="http://www.w3.org/2000/svg">
<path d="M17.687 14.55V21.0071H27.2061C26.7881 23.0836 25.5337 24.8419 23.6524 26.0242L29.3928 30.2228C32.7373 27.3127 34.6669 23.0383 34.6669 17.9606C34.6669 16.7784 34.5544 15.6415 34.3453 14.5502L17.687 14.55Z" fill="white"/>
<path d="M7.77487 20.7549L6.4802 21.6891L1.89746 25.054C4.80785 30.4954 10.7729 34.2545 17.6871 34.2545C22.4626 34.2545 26.4663 32.769 29.3928 30.2227L23.6525 26.0241C22.0767 27.0244 20.0667 27.6308 17.6871 27.6308C13.0883 27.6308 9.18112 24.7054 7.7821 20.7645L7.77487 20.7549Z" fill="white"/>
<path d="M1.89725 10.1091C0.691347 12.3523 0 14.8836 0 17.5816C0 20.2795 0.691347 22.8108 1.89725 25.054C1.89725 25.0691 7.78245 20.7494 7.78245 20.7494C7.42871 19.749 7.21961 18.688 7.21961 17.5814C7.21961 16.4748 7.42871 15.4138 7.78245 14.4135L1.89725 10.1091Z" fill="white"/>
<path d="M17.6874 7.54759C20.2923 7.54759 22.6077 8.39637 24.4569 10.0334L29.5219 5.25889C26.4507 2.56094 22.4631 0.908691 17.6874 0.908691C10.7733 0.908691 4.80785 4.65254 1.89746 10.1092L7.78249 14.4139C9.18132 10.4729 13.0887 7.54759 17.6874 7.54759Z" fill="white"/>
</svg>
