<svg width="35" height="34" viewBox="0 0 35 34" fill="none" xmlns="http://www.w3.org/2000/svg">
<path d="M17.5103 3.87989C22.1888 3.87989 22.7428 3.89923 24.5828 3.97657C26.2927 4.04747 27.2161 4.31816 27.8317 4.54374C28.6457 4.84022 29.2339 5.20115 29.8427 5.77476C30.4583 6.35482 30.8345 6.90266 31.1491 7.66963C31.3885 8.24969 31.6758 9.12623 31.751 10.7311C31.8331 12.4712 31.8536 12.9933 31.8536 17.3953C31.8536 21.8038 31.8331 22.3259 31.751 24.0596C31.6758 25.6709 31.3885 26.541 31.1491 27.121C30.8345 27.888 30.4514 28.4423 29.8427 29.0159C29.2271 29.596 28.6457 29.9504 27.8317 30.2469C27.2161 30.4725 26.2859 30.7432 24.5828 30.8141C22.736 30.8914 22.1819 30.9108 17.5103 30.9108C12.8317 30.9108 12.2777 30.8914 10.4378 30.8141C8.72777 30.7432 7.80438 30.4725 7.18878 30.2469C6.37483 29.9504 5.78659 29.5895 5.17784 29.0159C4.56224 28.4358 4.18605 27.888 3.87141 27.121C3.63201 26.541 3.34473 25.6644 3.26949 24.0596C3.18741 22.3194 3.16689 21.7973 3.16689 17.3953C3.16689 12.9869 3.18741 12.4648 3.26949 10.7311C3.34473 9.11978 3.63201 8.24969 3.87141 7.66963C4.18605 6.90266 4.56908 6.34838 5.17784 5.77476C5.79343 5.1947 6.37483 4.84022 7.18878 4.54374C7.80438 4.31816 8.73461 4.04747 10.4378 3.97657C12.2777 3.89923 12.8317 3.87989 17.5103 3.87989ZM17.5103 0.908691C12.7565 0.908691 12.1614 0.928027 10.2941 1.00537C8.43365 1.08271 7.15458 1.3663 6.04651 1.77234C4.89056 2.19772 3.91245 2.75844 2.94118 3.6801C1.96306 4.5953 1.36799 5.51696 0.916553 6.59974C0.485636 7.6503 0.184679 8.84909 0.102599 10.6022C0.0205198 12.3681 0 12.9289 0 17.4082C0 21.8876 0.0205198 22.4483 0.102599 24.2078C0.184679 25.9609 0.485636 27.1661 0.916553 28.2103C1.36799 29.2995 1.96306 30.2211 2.94118 31.1363C3.91245 32.0515 4.89056 32.6187 6.03967 33.0377C7.15458 33.4437 8.42681 33.7273 10.2873 33.8046C12.1546 33.882 12.7497 33.9013 17.5034 33.9013C22.2572 33.9013 22.8523 33.882 24.7196 33.8046C26.58 33.7273 27.8591 33.4437 28.9672 33.0377C30.1163 32.6187 31.0944 32.0515 32.0657 31.1363C33.0369 30.2211 33.6388 29.2995 34.0834 28.2167C34.5144 27.1661 34.8153 25.9673 34.8974 24.2143C34.9795 22.4548 35 21.894 35 17.4147C35 12.9353 34.9795 12.3746 34.8974 10.6151C34.8153 8.86198 34.5144 7.65674 34.0834 6.61263C33.6525 5.51696 33.0575 4.5953 32.0793 3.6801C31.1081 2.76489 30.13 2.19772 28.9808 1.77878C27.8659 1.37274 26.5937 1.08915 24.7332 1.01181C22.8591 0.928027 22.264 0.908691 17.5103 0.908691Z" fill="white"/>
<path d="M17 9.39233C12.0312 9.39233 8 13.1923 8 17.8761C8 22.56 12.0312 26.36 17 26.36C21.9688 26.36 26 22.56 26 17.8761C26 13.1923 21.9688 9.39233 17 9.39233ZM17 23.3793C13.7764 23.3793 11.162 20.9148 11.162 17.8761C11.162 14.8375 13.7764 12.373 17 12.373C20.2236 12.373 22.838 14.8375 22.838 17.8761C22.838 20.9148 20.2236 23.3793 17 23.3793Z" fill="white"/>
<path d="M29 8.44999C29 9.49396 28.101 10.3353 27 10.3353C25.8925 10.3353 25 9.48782 25 8.44999C25 7.40602 25.899 6.5647 27 6.5647C28.101 6.5647 29 7.41216 29 8.44999Z" fill="white"/>
</svg>
