<svg width="35" height="34" viewBox="0 0 35 34" fill="none" xmlns="http://www.w3.org/2000/svg">
<path d="M32.4092 0.908691H2.58398C1.15527 0.908691 0 1.97193 0 3.28648V31.5171C0 32.8316 1.15527 33.9013 2.58398 33.9013H32.4092C33.8379 33.9013 35 32.8316 35 31.5235V3.28648C35 1.97193 33.8379 0.908691 32.4092 0.908691ZM10.3838 29.0233H5.18848V13.2745H10.3838V29.0233ZM7.78613 11.1287C6.11816 11.1287 4.77148 9.85922 4.77148 8.29336C4.77148 6.7275 6.11816 5.45806 7.78613 5.45806C9.44727 5.45806 10.7939 6.7275 10.7939 8.29336C10.7939 9.85278 9.44727 11.1287 7.78613 11.1287ZM29.8252 29.0233H24.6367V21.368C24.6367 19.5444 24.6025 17.1923 21.9365 17.1923C19.2363 17.1923 18.8262 19.1835 18.8262 21.2391V29.0233H13.6445V13.2745H18.6211V15.4267H18.6895C19.3799 14.1895 21.0752 12.8814 23.5977 12.8814C28.8545 12.8814 29.8252 16.142 29.8252 20.3821V29.0233Z" fill="white"/>
</svg>
